<svg width="16" height="16" viewBox="0 0 16 16" fill="none" xmlns="http://www.w3.org/2000/svg">
<g clip-path="url(#clip0_1121_9)">
<path d="M14.5813 0.60376H1.42001C0.969207 0.60376 0.60376 0.969207 0.60376 1.42001V14.5813C0.60376 15.0321 0.969207 15.3975 1.42001 15.3975H14.5813C15.0321 15.3975 15.3975 15.0321 15.3975 14.5813V1.42001C15.3975 0.969207 15.0321 0.60376 14.5813 0.60376Z" fill="#3D5A98"/>
<path d="M10.81 15.3962V9.66749H12.7325L13.02 7.43499H10.81V6.00999C10.81 5.36374 10.99 4.92249 11.9163 4.92249H13.0988V2.92249C12.5261 2.86292 11.9507 2.83454 11.375 2.83749C9.67251 2.83749 8.50001 3.87499 8.50001 5.78874V7.43499H6.57751V9.66749H8.50001V15.3962H10.81Z" fill="white"/>
</g>
<defs>
<clipPath id="clip0_1121_9">
<rect width="16" height="16" fill="white"/>
</clipPath>
</defs>
</svg>
