<svg width="256" height="73" viewBox="0 0 256 73" fill="none" xmlns="http://www.w3.org/2000/svg">
<g clip-path="url(#clip0_1120_6)">
<path d="M13.5635 0.450996C8.34002 2.639 2.59852 8.8125 0.785022 16.5675C-1.51198 26.39 8.04502 30.545 8.82952 29.1845C9.75202 27.584 7.11702 27.043 6.57452 21.946C5.87352 15.363 8.93402 8.0075 12.786 4.78C13.501 4.18 13.4675 5.015 13.4675 6.5585C13.4675 9.319 13.315 34.101 13.315 39.273C13.315 46.271 13.026 48.481 12.5065 50.665C11.981 52.8775 11.135 54.373 11.7755 54.949C12.4915 55.593 15.5485 54.0605 17.318 51.591C19.44 48.629 20.183 45.071 20.3165 41.2085C20.4775 36.5515 20.4705 29.1615 20.4775 24.9465C20.4835 21.081 20.5425 9.7615 20.4095 2.9565C20.377 1.2865 15.748 -0.464504 13.5635 0.450996ZM199.035 33.2025C198.867 36.841 198.061 39.6845 197.062 41.6905C195.127 45.574 191.112 46.7795 189.407 41.1975C188.478 38.1545 188.434 33.0725 189.102 28.826C189.782 24.5005 191.681 21.2335 194.824 21.528C197.925 21.8195 199.377 25.8145 199.035 33.2025ZM146.76 55.776C146.718 61.821 145.767 67.121 143.727 68.661C140.833 70.844 136.943 69.206 137.749 64.795C138.461 60.8915 141.832 56.905 146.769 52.034C146.769 52.034 146.779 53.145 146.76 55.776ZM145.97 33.1675C145.793 36.4815 144.934 39.81 143.997 41.691C142.062 45.5745 138.018 46.7885 136.342 41.198C135.196 37.378 135.47 32.435 136.037 29.32C136.773 25.2785 138.557 21.529 141.759 21.529C144.873 21.529 146.409 24.9455 145.97 33.1675ZM115.688 33.1175C115.498 36.6265 114.813 39.56 113.715 41.691C111.727 45.548 107.794 46.771 106.06 41.198C104.809 37.1795 105.235 31.7005 105.755 28.7405C106.527 24.348 108.46 21.234 111.477 21.529C114.577 21.832 116.083 25.8155 115.688 33.1175ZM254.464 37.2165C253.707 37.2165 253.361 37.9975 253.074 39.3115C252.083 43.8835 251.039 44.915 249.695 44.915C248.192 44.915 246.842 42.652 246.495 38.121C246.222 34.558 246.266 27.999 246.615 21.4745C246.686 20.134 246.316 18.8075 242.721 17.5015C241.174 16.9395 238.925 16.112 237.805 18.815C234.641 26.452 233.403 32.515 233.112 34.977C233.097 35.1045 232.94 35.131 232.913 34.833C232.727 32.8605 232.313 29.2755 232.261 21.7445C232.251 20.275 231.94 19.0245 230.318 18.0005C229.265 17.3355 226.07 16.1605 224.919 17.559C223.922 18.702 222.767 21.779 221.568 25.427C220.593 28.392 219.914 30.397 219.914 30.397C219.914 30.397 219.927 22.398 219.938 19.3635C219.943 18.219 219.158 17.8375 218.921 17.7685C217.856 17.4595 215.756 16.943 214.865 16.943C213.765 16.943 213.496 17.557 213.496 18.453C213.496 18.5705 213.323 28.9845 213.323 36.2665C213.323 36.583 213.323 36.928 213.324 37.295C212.716 40.642 210.744 45.185 208.599 45.185C206.451 45.185 205.438 43.286 205.438 34.6045C205.438 29.54 205.59 27.3375 205.664 23.6745C205.708 21.5645 205.792 19.9445 205.787 19.577C205.771 18.4495 203.822 17.881 202.914 17.671C202.003 17.4595 201.211 17.377 200.592 17.4125C199.717 17.4625 199.097 18.036 199.097 18.826C199.097 19.25 199.102 20.055 199.102 20.055C197.975 18.283 196.161 17.05 194.955 16.6925C191.705 15.7275 188.314 16.5825 185.756 20.162C183.723 23.0055 182.497 26.227 182.015 30.8545C181.662 34.238 181.777 37.6685 182.404 40.57C181.647 43.844 180.241 45.185 178.702 45.185C176.467 45.185 174.847 41.538 175.035 35.229C175.159 31.0795 175.989 28.1675 176.897 23.9545C177.284 22.1585 176.969 21.2185 176.181 20.3175C175.457 19.491 173.916 19.0685 171.701 19.5875C170.123 19.958 167.866 20.3565 165.802 20.6625C165.802 20.6625 165.927 20.165 166.029 19.289C166.566 14.694 161.572 15.0665 159.979 16.534C159.028 17.4105 158.381 18.444 158.135 20.302C157.745 23.251 160.15 24.642 160.15 24.642C159.362 28.254 157.427 32.972 155.43 36.3835C154.361 38.211 153.543 39.5655 152.486 41.005C152.452 35.2281 152.489 29.451 152.599 23.675C152.643 21.565 152.727 19.988 152.723 19.62C152.711 18.796 152.229 18.484 151.228 18.09C150.342 17.741 149.295 17.5 148.208 17.415C146.837 17.309 146.011 18.0355 146.033 18.8955C146.037 19.058 146.037 20.055 146.037 20.055C144.91 18.283 143.096 17.05 141.89 16.6925C138.64 15.7275 135.249 16.5825 132.691 20.162C130.658 23.0055 129.327 26.9965 128.95 30.8195C128.599 34.382 128.663 37.4095 129.142 39.9605C128.626 42.5145 127.14 45.1855 125.46 45.1855C123.312 45.1855 122.09 43.286 122.09 34.6045C122.09 29.54 122.242 27.3375 122.317 23.6745C122.361 21.565 122.444 19.9445 122.44 19.577C122.424 18.4495 120.474 17.8815 119.567 17.671C118.618 17.451 117.798 17.371 117.169 17.4175C116.339 17.479 115.755 18.2225 115.755 18.777V20.055C114.627 18.283 112.814 17.05 111.607 16.6925C108.357 15.7275 104.985 16.5965 102.408 20.162C100.728 22.4865 99.3675 25.0635 98.6675 30.7685C98.465 32.417 98.3755 33.9615 98.3875 35.404C97.7175 39.502 94.7575 44.225 92.337 44.225C90.9205 44.225 89.571 41.477 89.571 35.6215C89.571 27.8215 90.054 16.7155 90.136 15.6455C90.136 15.6455 93.1945 15.5935 93.7865 15.5865C95.3125 15.5695 96.694 15.606 98.7265 15.5015C99.7455 15.45 100.728 11.7915 99.6755 11.339C99.1985 11.134 95.829 10.955 94.493 10.9265C93.37 10.9015 90.243 10.6695 90.243 10.6695C90.243 10.6695 90.5235 3.298 90.589 2.5195C90.644 1.87 89.804 1.536 89.323 1.3335C88.152 0.838495 87.1045 0.600996 85.863 0.344996C84.147 -0.00900449 83.369 0.337495 83.217 1.785C82.988 3.9825 82.8695 10.419 82.8695 10.419C81.6105 10.419 77.3095 10.173 76.0505 10.173C74.8805 10.173 73.6175 15.205 75.2355 15.267C77.0965 15.339 80.34 15.402 82.49 15.466C82.49 15.466 82.394 26.755 82.394 30.241C82.3944 30.611 82.3957 30.969 82.398 31.315C81.2145 37.4825 77.0465 40.8145 77.0465 40.8145C77.9415 36.734 76.113 33.6695 72.8195 31.0755C71.606 30.12 69.2105 28.3105 66.5305 26.3275C66.5305 26.3275 68.0825 24.7975 69.4595 21.7195C70.4345 19.5385 70.477 17.044 68.0825 16.4935C64.1265 15.5835 60.865 18.489 59.892 21.591C59.138 23.994 59.54 25.7765 61.017 27.6285C61.1245 27.764 61.242 27.9025 61.362 28.0415C60.4695 29.7625 59.2425 32.08 58.2035 33.877C55.3195 38.867 53.141 42.813 51.4945 42.813C50.1785 42.813 50.196 38.806 50.196 35.0545C50.196 31.8205 50.435 26.958 50.626 21.9245C50.689 20.2595 49.856 19.311 48.461 18.452C47.613 17.93 45.8035 16.904 44.7555 16.904C43.1865 16.904 38.6605 17.1175 34.3845 29.4875C33.8455 31.0465 32.7865 33.8875 32.7865 33.8875L32.878 19.012C32.878 18.663 32.692 18.326 32.2665 18.0955C31.546 17.704 29.6215 16.904 27.91 16.904C27.095 16.9043 26.6875 17.2827 26.6875 18.039L26.5385 41.312C26.5385 43.0805 26.5845 45.1435 26.7595 46.0455C26.9335 46.9485 27.216 47.6835 27.565 48.1205C27.9145 48.557 28.318 48.8905 28.9835 49.0275C29.603 49.155 32.995 49.5905 33.1715 48.2945C33.3825 46.7405 33.391 45.0605 35.172 38.7935C37.945 29.036 41.56 24.276 43.26 22.585C43.5575 22.29 43.8965 22.272 43.88 22.7555C43.808 24.8945 43.5525 30.2405 43.381 34.7805C42.9205 46.933 45.131 49.1855 48.2905 49.1855C50.7075 49.1855 54.1145 46.784 57.7665 40.705C59.8014 37.3173 61.8269 33.9239 63.843 30.525C64.9495 31.5495 66.192 32.652 67.433 33.83C70.318 36.568 71.265 39.17 70.6365 41.638C70.1565 43.5245 68.346 45.469 65.1245 43.5795C64.1855 43.028 63.7845 42.6015 62.8405 41.98C62.3335 41.6465 61.559 41.5465 61.0945 41.8965C59.8885 42.8055 59.1985 43.9625 58.8045 45.3945C58.4215 46.788 59.817 47.5245 61.264 48.169C62.5095 48.7235 65.187 49.226 66.894 49.283C73.5465 49.5055 78.876 46.071 82.586 37.2115C83.25 44.863 86.076 49.1925 90.9865 49.1925C94.2695 49.1925 97.561 44.949 99.0005 40.7745C99.4135 42.476 100.026 43.956 100.816 45.2075C104.599 51.2025 111.939 49.9125 115.626 44.8215C116.766 43.2485 116.94 42.6835 116.94 42.6835C117.478 47.49 121.349 49.1695 123.565 49.1695C126.047 49.1695 128.61 47.996 130.406 43.952C130.616 44.3917 130.847 44.8102 131.098 45.2075C134.881 51.2025 142.222 49.9125 145.909 44.8215C146.082 44.5828 146.234 44.3662 146.365 44.1715L146.473 47.329L143.079 50.4425C137.389 55.6575 133.067 59.6125 132.749 64.219C132.344 70.0925 137.105 72.2755 140.712 72.5615C144.535 72.865 147.816 70.751 149.829 67.7925C151.601 65.188 152.761 59.583 152.675 54.0475C152.642 51.8305 152.585 49.012 152.542 45.9905C154.539 43.671 156.79 40.739 158.862 37.308C161.12 33.5685 163.54 28.5465 164.779 24.638C164.779 24.638 166.881 24.6565 169.125 24.5095C169.843 24.4625 170.049 24.6095 169.916 25.135C169.756 25.771 167.081 36.0875 169.523 42.96C171.193 47.665 174.96 49.178 177.193 49.178C179.807 49.178 182.308 47.204 183.648 44.273C183.81 44.5995 183.978 44.9155 184.163 45.208C187.946 51.203 195.261 49.9045 198.974 44.8215C199.812 43.6745 200.287 42.6835 200.287 42.6835C201.084 47.6585 204.953 49.195 207.169 49.195C209.477 49.195 211.668 48.2485 213.445 44.043C213.52 45.895 213.636 47.409 213.821 47.886C213.933 48.1785 214.589 48.5445 215.066 48.7215C217.178 49.5045 219.331 49.1345 220.128 48.9735C220.68 48.8615 221.111 48.4185 221.17 47.2755C221.325 44.273 221.23 39.2285 222.14 35.479C223.667 29.1875 225.093 26.747 225.769 25.539C226.147 24.8615 226.574 24.75 226.589 25.4665C226.621 26.9165 226.693 31.173 227.285 36.893C227.72 41.099 228.3 43.5855 228.747 44.373C230.021 46.623 231.593 46.7295 232.874 46.7295C233.689 46.7295 235.393 46.5045 235.241 45.0725C235.166 44.3745 235.296 40.0605 236.803 33.862C237.786 29.814 239.426 26.157 240.018 24.8195C240.236 24.3265 240.338 24.715 240.334 24.791C240.209 27.5785 239.93 36.6965 241.065 41.6835C242.605 48.439 247.058 49.195 248.61 49.195C251.923 49.195 254.633 46.675 255.545 40.044C255.765 38.448 255.44 37.2165 254.464 37.2165Z" fill="#343433"/>
</g>
<defs>
<clipPath id="clip0_1120_6">
<rect width="256" height="73" fill="white"/>
</clipPath>
</defs>
</svg>
