<svg width="12" height="16" viewBox="0 0 12 16" fill="none" xmlns="http://www.w3.org/2000/svg">
<path d="M6.65705 6.24703C6.76705 5.91703 7.23306 5.91703 7.34306 6.24703L7.98805 8.18403C8.13003 8.60983 8.36923 8.99671 8.6867 9.31401C9.00416 9.6313 9.39118 9.87029 9.81705 10.012L11.7531 10.657C12.0831 10.767 12.0831 11.233 11.7531 11.343L9.81605 11.988C9.39025 12.13 9.00337 12.3692 8.68608 12.6867C8.36878 13.0041 8.12979 13.3911 7.98805 13.817L7.34306 15.753C7.31934 15.8253 7.27341 15.8882 7.21181 15.9328C7.15022 15.9774 7.07611 16.0015 7.00005 16.0015C6.924 16.0015 6.84989 15.9774 6.7883 15.9328C6.7267 15.8882 6.68077 15.8253 6.65705 15.753L6.01205 13.816C5.87018 13.3903 5.63114 13.0035 5.31385 12.6862C4.99656 12.3689 4.60975 12.1299 4.18405 11.988L2.24705 11.343C2.17479 11.3193 2.11187 11.2734 2.06726 11.2118C2.02264 11.1502 1.99862 11.0761 1.99862 11C1.99862 10.924 2.02264 10.8499 2.06726 10.7883C2.11187 10.7267 2.17479 10.6807 2.24705 10.657L4.18405 10.012C4.60975 9.87016 4.99656 9.63111 5.31385 9.31382C5.63114 8.99653 5.87018 8.60972 6.01205 8.18403L6.65705 6.24703ZM2.79405 1.14803C2.80839 1.10472 2.83602 1.06704 2.873 1.04033C2.90998 1.01362 2.95444 0.999241 3.00005 0.999241C3.04567 0.999241 3.09013 1.01362 3.12711 1.04033C3.16409 1.06704 3.19171 1.10472 3.20605 1.14803L3.59305 2.31003C3.76605 2.82803 4.17205 3.23403 4.69005 3.40703L5.85206 3.79403C5.89536 3.80837 5.93305 3.83599 5.95976 3.87297C5.98647 3.90995 6.00084 3.95441 6.00084 4.00003C6.00084 4.04565 5.98647 4.0901 5.95976 4.12709C5.93305 4.16407 5.89536 4.19169 5.85206 4.20603L4.69005 4.59303C4.43443 4.67787 4.20214 4.82122 4.01169 5.01167C3.82124 5.20212 3.67789 5.4344 3.59305 5.69003L3.20605 6.85203C3.19171 6.89533 3.16409 6.93302 3.12711 6.95973C3.09013 6.98644 3.04567 7.00082 3.00005 7.00082C2.95444 7.00082 2.90998 6.98644 2.873 6.95973C2.83602 6.93302 2.80839 6.89533 2.79405 6.85203L2.40705 5.69003C2.32222 5.4344 2.17886 5.20212 1.98842 5.01167C1.79797 4.82122 1.56568 4.67787 1.31005 4.59303L0.148055 4.20603C0.104749 4.19169 0.067064 4.16407 0.040354 4.12709C0.0136439 4.0901 -0.000732422 4.04565 -0.000732422 4.00003C-0.000732422 3.95441 0.0136439 3.90995 0.040354 3.87297C0.067064 3.83599 0.104749 3.80837 0.148055 3.79403L1.31005 3.40703C1.56568 3.32219 1.79797 3.17884 1.98842 2.98839C2.17886 2.79794 2.32222 2.56565 2.40705 2.31003L2.79405 1.14803ZM9.86305 0.0990285C9.87293 0.0705548 9.89142 0.0458644 9.91598 0.0283901C9.94053 0.0109158 9.96992 0.00152588 10.0001 0.00152588C10.0302 0.00152588 10.0596 0.0109158 10.0841 0.0283901C10.1087 0.0458644 10.1272 0.0705548 10.1371 0.0990285L10.3951 0.873029C10.5101 1.21903 10.7811 1.49003 11.1271 1.60503L11.9011 1.86303C11.9295 1.8729 11.9542 1.8914 11.9717 1.91595C11.9892 1.9405 11.9986 1.96989 11.9986 2.00003C11.9986 2.03016 11.9892 2.05955 11.9717 2.08411C11.9542 2.10866 11.9295 2.12716 11.9011 2.13703L11.1271 2.39503C10.9567 2.45203 10.8019 2.54782 10.6749 2.67484C10.5478 2.80187 10.4521 2.95667 10.3951 3.12703L10.1371 3.90103C10.1272 3.9295 10.1087 3.95419 10.0841 3.97167C10.0596 3.98914 10.0302 3.99853 10.0001 3.99853C9.96992 3.99853 9.94053 3.98914 9.91598 3.97167C9.89142 3.95419 9.87293 3.9295 9.86305 3.90103L9.60505 3.12703C9.54805 2.95667 9.45227 2.80187 9.32524 2.67484C9.19821 2.54782 9.04342 2.45203 8.87305 2.39503L8.10005 2.13703C8.07158 2.12716 8.04689 2.10866 8.02942 2.08411C8.01194 2.05955 8.00255 2.03016 8.00255 2.00003C8.00255 1.96989 8.01194 1.9405 8.02942 1.91595C8.04689 1.8914 8.07158 1.8729 8.10005 1.86303L8.87405 1.60503C9.22005 1.49003 9.49105 1.21903 9.60605 0.873029L9.86305 0.0990285Z" fill="#A636B0"/>
</svg>
